<svg version="1.0" xmlns="http://www.w3.org/2000/svg"
viewBox="0 0 490.000000 490.000000"
 preserveAspectRatio="xMidYMid meet">

<g transform="translate(0.000000,490.000000) scale(0.100000,-0.100000)"
fill="currentColor" stroke="none">
<path d="M470 2540 l0 -2270 1496 0 1496 0 -52 63 c-29 34 -65 77 -81 94 l-28
33 -1313 2 -1313 3 0 2075 0 2075 935 0 935 0 3 -642 2 -643 640 0 640 0 0
-590 0 -590 100 0 100 0 0 658 0 657 -673 673 -672 672 -1108 0 -1107 0 0
-2270z m2747 1468 c255 -255 463 -466 463 -470 0 -5 -210 -7 -467 -6 l-468 3
-3 468 c-1 257 1 467 5 467 4 0 216 -208 470 -462z"/>
<path d="M1277 2751 c-97 -32 -162 -92 -211 -191 l-31 -65 0 -200 c0 -196 1
-201 27 -257 37 -80 105 -149 181 -184 56 -26 72 -29 167 -28 84 0 116 4 162
22 105 42 173 134 185 248 l6 54 -92 0 c-80 0 -91 -2 -91 -17 0 -36 -22 -93
-46 -122 -32 -39 -110 -58 -170 -42 -58 15 -93 46 -120 105 -22 47 -24 64 -24
215 0 187 9 228 60 282 40 43 96 61 155 52 83 -12 127 -57 141 -141 l7 -42 88
0 89 0 0 33 c0 108 -72 213 -181 262 -83 37 -217 44 -302 16z"/>
<path d="M2100 2755 c-78 -22 -153 -75 -187 -132 -54 -92 -31 -225 49 -287 48
-36 141 -79 238 -111 108 -35 158 -63 176 -97 45 -87 -26 -168 -146 -168 -93
0 -172 53 -185 123 l-7 37 -89 0 -89 0 0 -37 c1 -174 247 -302 482 -252 159
34 252 147 232 282 -19 120 -101 190 -295 253 -160 51 -209 87 -209 152 0 67
94 121 186 107 65 -9 106 -42 124 -98 l15 -47 88 0 87 0 0 28 c0 89 -70 181
-172 227 -78 35 -211 44 -298 20z"/>
<path d="M2640 2752 c0 -8 251 -752 292 -865 l21 -58 95 3 96 3 157 460 157
460 -96 3 c-52 1 -96 1 -98 -1 -3 -2 -52 -166 -111 -365 l-107 -361 -106 362
-107 362 -96 3 c-54 1 -97 -1 -97 -6z"/>
<path d="M3537 1943 c-4 -3 -7 -204 -7 -445 l0 -438 -241 0 c-146 0 -239 -4
-237 -9 6 -18 819 -971 828 -971 5 0 106 114 223 253 118 138 303 356 411 482
107 127 196 233 196 238 0 4 -108 7 -240 7 l-240 0 -2 443 -3 442 -341 3
c-187 1 -343 -1 -347 -5z m493 -638 l0 -444 126 -3 125 -3 -197 -240 c-108
-132 -198 -242 -200 -244 -4 -5 -38 35 -233 274 l-171 210 125 3 125 3 0 438
c0 241 3 441 7 444 3 4 71 7 150 7 l143 0 0 -445z"/>
</g>
</svg>
