<svg xmlns="http://www.w3.org/2000/svg" viewBox="0 0 512 512" data-svgdocument="" id="_90OiF3nQhnIx7K1i6gIgT" class="fl-svgdocument" x="0" y="0" xmlns:xlink="http://www.w3.org/1999/xlink" data-bbox="130.0077998023453 147.60908941308855 251.98440604655843 209.63558248952938">
  <defs id="_KTAok-gLaGMC1CggpAMcL" transform="matrix(0.396432101726532, 0, 0, 0.396432101726532, 1.6438273191452026, 91.57364654541016)" />
  <path text="MarcoTAO" text-anchor="middle" font-size="100" letter-spacing="0" side="left" offset="0.5" dx="0" dy="0" space="preserve" href="" font-family="Oswald" font-scale="contain" transform="matrix(0.7054434418678284, 0, 0, 0.7054434418678284, 255.5414581298828, 356.6097717285156)" x="0" y="0" fill="#e89e32" data-fl-textpath="" id="_VtcarBKHi_i0NmtmYZUdh" font-weight="400" font-style="normal" d="M-177.95000000000002 0L-176.45000000000002-81L-165.35000000000002-81L-151.05-15.3L-136.65-81L-125.65-81L-124.15 0L-133.25 0L-134.15-58.8L-147.85000000000002 0L-154.25 0L-167.85000000000002-58.8L-168.75 0L-177.95000000000002 0ZM-102.25000000000001 0.8Q-105.55000000000001 0.8 -108.20000000000002-1.1Q-110.85000000000001-3 -112.35000000000001-6.1Q-113.85000000000001-9.2 -113.85000000000001-12.6L-113.85000000000001-12.6Q-113.85000000000001-19.4 -110.95000000000002-23.65Q-108.05000000000001-27.9 -103.55000000000001-30.4Q-99.05000000000001-32.9 -91.05000000000001-36.1L-91.05000000000001-36.1L-91.05000000000001-40.2Q-91.05000000000001-45.9 -92.20000000000002-48.25Q-93.35000000000001-50.6 -96.85000000000001-50.6L-96.85000000000001-50.6Q-102.95000000000002-50.6 -102.95000000000002-42.4L-102.95000000000002-42.4L-102.95000000000002-39.5L-113.55000000000001-39.9Q-113.35000000000001-49.5 -109.15-54.05Q-104.95000000000002-58.6 -96.15-58.6L-96.15-58.6Q-87.85000000000001-58.6 -84.10000000000001-54.05Q-80.35000000000001-49.5 -80.35000000000001-40.3L-80.35000000000001-40.3L-80.35000000000001-13.9Q-80.35000000000001-7.4 -79.35000000000001 0L-79.35000000000001 0L-89.15 0Q-90.25000000000001-5.7 -90.55000000000001-8.5L-90.55000000000001-8.5Q-91.75000000000001-4.6 -94.70000000000002-1.9Q-97.65 0.8 -102.25000000000001 0.8L-102.25000000000001 0.8ZM-98.05000000000001-8.4Q-95.95000000000002-8.4 -93.95000000000002-10.05Q-91.95000000000002-11.7 -91.05000000000001-13.2L-91.05000000000001-13.2L-91.05000000000001-29.6Q-95.35000000000001-27.2 -97.70000000000002-25.45Q-100.05000000000001-23.7 -101.60000000000001-21.4Q-103.15-19.1 -103.15-15.9L-103.15-15.9Q-103.15-12.3 -101.85000000000001-10.35Q-100.55000000000001-8.4 -98.05000000000001-8.4L-98.05000000000001-8.4ZM-69.75000000000001 0L-69.75000000000001-57.8L-59.05000000000002-57.8L-59.05000000000002-49.6Q-56.05000000000002-54.5 -52.90000000000002-56.5Q-49.750000000000014-58.5 -46.250000000000014-58.5L-46.250000000000014-58.5Q-45.350000000000016-58.5 -44.55000000000002-58.4L-44.55000000000002-58.4L-44.55000000000002-46.6Q-47.750000000000014-47.8 -50.45000000000002-47.8L-50.45000000000002-47.8Q-53.05000000000002-47.8 -55.100000000000016-46.55Q-57.15000000000002-45.3 -59.05000000000002-42.2L-59.05000000000002-42.2L-59.05000000000002 0L-69.75000000000001 0ZM-22.150000000000016 0.8Q-28.950000000000017 0.8 -32.65000000000002-1.95Q-36.350000000000016-4.7 -37.70000000000002-9.65Q-39.05000000000002-14.6 -39.05000000000002-22.2L-39.05000000000002-22.2L-39.05000000000002-35.5Q-39.05000000000002-43.3 -37.70000000000002-48.3Q-36.350000000000016-53.3 -32.65000000000002-55.95Q-28.950000000000017-58.6 -22.150000000000016-58.6L-22.150000000000016-58.6Q-15.950000000000017-58.6 -12.500000000000014-56.6Q-9.050000000000018-54.6 -7.700000000000017-50.65Q-6.350000000000016-46.7 -6.350000000000016-40.4L-6.350000000000016-40.4L-6.350000000000016-37L-16.050000000000015-37L-16.050000000000015-40.5Q-16.050000000000015-46.2 -17.300000000000015-48.45Q-18.550000000000015-50.7 -22.050000000000015-50.7L-22.050000000000015-50.7Q-24.750000000000014-50.7 -26.050000000000015-49.5Q-27.350000000000016-48.3 -27.850000000000016-45.6Q-28.350000000000016-42.9 -28.350000000000016-37.7L-28.350000000000016-37.7L-28.350000000000016-19.5Q-28.350000000000016-14.5 -27.750000000000014-11.85Q-27.150000000000016-9.2 -25.800000000000015-8.15Q-24.450000000000017-7.1 -21.950000000000017-7.1L-21.950000000000017-7.1Q-18.250000000000014-7.1 -17.150000000000016-9.55Q-16.050000000000015-12 -16.050000000000015-17.1L-16.050000000000015-17.1L-16.050000000000015-21.8L-6.350000000000016-21.8L-6.350000000000016-17.8Q-6.350000000000016-8.4 -9.800000000000018-3.8Q-13.250000000000014 0.8 -22.150000000000016 0.8L-22.150000000000016 0.8ZM 19.049999999999986 0.8Q 9.849999999999985 0.8  5.999999999999986-4.65Q 2.149999999999986-10.1  2.149999999999986-20.5L 2.149999999999986-20.5L 2.149999999999986-37.3Q 2.149999999999986-47.7  5.999999999999986-53.15Q 9.849999999999985-58.6  19.049999999999986-58.6L 19.049999999999986-58.6Q 28.149999999999984-58.6  31.999999999999986-53.15Q 35.84999999999999-47.7  35.84999999999999-37.3L 35.84999999999999-37.3L 35.84999999999999-20.5Q 35.84999999999999-10.1  31.999999999999986-4.65Q 28.149999999999984 0.8  19.049999999999986 0.8L 19.049999999999986 0.8ZM 19.049999999999986-7.1Q 21.949999999999985-7.1  23.249999999999986-8.8Q 24.549999999999986-10.5  24.849999999999987-13Q 25.149999999999984-15.5  25.149999999999984-19.8L 25.149999999999984-19.8L 25.149999999999984-37.9Q 25.149999999999984-42.2  24.849999999999987-44.75Q 24.549999999999986-47.3  23.249999999999986-49Q 21.949999999999985-50.7  19.049999999999986-50.7L 19.049999999999986-50.7Q 16.149999999999984-50.7  14.799999999999986-49Q 13.449999999999985-47.3  13.149999999999986-44.75Q 12.849999999999985-42.2  12.849999999999985-37.9L 12.849999999999985-37.9L 12.849999999999985-19.8Q 12.849999999999985-15.5  13.149999999999986-13Q 13.449999999999985-10.5  14.799999999999986-8.8Q 16.149999999999984-7.1  19.049999999999986-7.1L 19.049999999999986-7.1ZM 55.44999999999999 0L 55.44999999999999-72.6L 41.749999999999986-72.6L 41.749999999999986-81L 80.04999999999998-81L 80.04999999999998-72.6L 66.74999999999999-72.6L 66.74999999999999 0L 55.44999999999999 0ZM 83.25 0L 100.44999999999999-81L 111.35-81L 128.64999999999998 0L 117.94999999999999 0L 114.25-20.4L 97.75-20.4L 93.85 0L 83.25 0ZM 99.25-28.5L 112.75-28.5L 105.94999999999999-65L 99.25-28.5ZM 157.15000000000003 0.9Q 145.25000000000003 0.9  140.10000000000002-5.85Q 134.95000000000005-12.6  134.95000000000005-25.4L 134.95000000000005-25.4L 134.95000000000005-56.1Q 134.95000000000005-68.7  140.15000000000003-75.2Q 145.35000000000002-81.7  157.15000000000003-81.7L 157.15000000000003-81.7Q 168.95000000000005-81.7  174.10000000000002-75.15Q 179.25000000000003-68.6  179.25000000000003-56.1L 179.25000000000003-56.1L 179.25000000000003-25.3Q 179.25000000000003-12.7  174.05000000000004-5.9Q 168.85000000000002 0.9  157.15000000000003 0.9L 157.15000000000003 0.9ZM 157.15000000000003-8Q 163.45000000000005-8  165.65000000000003-11.7Q 167.85000000000002-15.4  167.85000000000002-22.9L 167.85000000000002-22.9L 167.85000000000002-58.4Q 167.85000000000002-65.8  165.65000000000003-69.35Q 163.45000000000005-72.9  157.15000000000003-72.9L 157.15000000000003-72.9Q 150.75000000000003-72.9  148.55000000000004-69.35Q 146.35000000000002-65.8  146.35000000000002-58.4L 146.35000000000002-58.4L 146.35000000000002-22.9Q 146.35000000000002-15.4  148.55000000000004-11.7Q 150.75000000000003-8  157.15000000000003-8L 157.15000000000003-8Z" />
  <g transform="matrix(1.479062795639038, 0, 0, 1.479062795639038, 189.4421844482422, 143.88185119628906)">
    <g fill="#e89e32">
      <path transform="matrix(1, 0, 0, 1, 0, 0)" fill="#e89e32" data-type="polygon" d="M81.27 82.439L64.26 87.48L46.09 82.43L63.08 77.391L63.1 77.391Z" />
      <path d="M77.32,26.819c0,0.021,0,0.051-0.01,0.07l5.02-18.08l5.02,16.931l-5.039,18.18l-5.031-16.96L77.32,26.819z" transform="matrix(1, 0, 0, 1, 0, 0)" fill="#e89e32" stroke="#580707" stroke-width="0" />
      <path transform="matrix(1, 0, 0, 1, 0, 0)" fill="#e89e32" data-type="polygon" d="M57.46 21.87L59.91 30.12L40.971 26.76Z" />
      <path transform="matrix(1, 0, 0, 1, 0, 0)" fill="#e89e32" data-type="polygon" d="M26.88 49.109L21.931 32.399L30.28 29.93Z" />
    </g>
    <g fill="#043b7c">
      <path d="M12.69,63.109L7.66,81.23L2.65,64.34l5.04-18.18l5.02,16.91v0.01L12.69,63.109z" transform="matrix(1, 0, 0, 1, 0, 0)" fill="#043b7c" />
      <path d="M21.36,32.569l7.85,26.511l-15.96,3.73L2.76,27.41l18.591,5.159H21.36z" transform="matrix(1, 0, 0, 1, 0, 0)" fill="#043b7c" />
      <path transform="matrix(1, 0, 0, 1, 0, 0)" fill="#043b7c" data-type="polygon" d="M14.271 63.189L29.681 59.609L49.04 63.24L32.311 68.2Z" />
      <path d="M62.62,2.649L57.471,21.24l-35.4,10.489l5.16-18.59v-0.01L62.62,2.649z" transform="matrix(1, 0, 0, 1, 0, 0)" fill="#043b7c" />
      <path transform="matrix(1, 0, 0, 1, 0, 0)" fill="#043b7c" data-type="polygon" d="M27.4 87.34L32.55 68.75L67.95 58.26L67.96 58.26L62.8 76.85Z" />
      <path d="M87.24,62.67l-18.59-5.16h-0.01L58.13,22.01l18.591,5.15L87.24,62.67z" transform="matrix(1, 0, 0, 1, 0, 0)" fill="#043b7c" />
    </g>
    <g fill="#ffc700">
      <path transform="matrix(1, 0, 0, 1, 0, 0)" fill="#649ccc" stroke="#e70000" stroke-width="0" data-type="polygon" d="M63.46 76.83L68.641 58.18L87.3 63.35L82.12 82.01Z" />
      <path transform="matrix(1, 0, 0, 1, 0, 0)" fill="#649ccc" stroke="#e70000" stroke-width="0" data-type="polygon" d="M58.12 21.26L63.279 2.68L81.93 7.859L76.779 26.43Z" />
      <path transform="matrix(1, 0, 0, 1, 0, 0)" fill="#649ccc" data-type="polygon" d="M68.04 57.609L59.73 60.07L63.12 40.971L68.05 57.609Z" />
      <path transform="matrix(1, 0, 0, 1, 0, 0)" fill="#649ccc" data-type="polygon" d="M8.73 7.56L25.74 2.52L43.91 7.569L26.92 12.609L26.9 12.609Z" />
      <path transform="matrix(1, 0, 0, 1, 0, 0)" fill="#649ccc" data-type="polygon" d="M31.88 68.74L26.7 87.391L8.07 82.221L13.24 63.58Z" />
      <path transform="matrix(1, 0, 0, 1, 0, 0)" fill="#649ccc" data-type="polygon" d="M21.36 31.819L2.721 26.649L7.88 8.08L26.521 13.25Z" />
    </g>
  </g>
</svg>