<svg version="1.0" xmlns="http://www.w3.org/2000/svg"
 viewBox="0 0 490.000000 490.000000"
 preserveAspectRatio="xMidYMid meet">

<g transform="translate(0.000000,490.000000) scale(0.100000,-0.100000)"
fill="currentColor" stroke="none">
<path d="M470 2540 l0 -2270 1496 0 1496 0 -52 63 c-29 34 -65 77 -81 94 l-28
33 -1313 2 -1313 3 0 2075 0 2075 935 0 935 0 3 -642 2 -643 640 0 640 0 0
-590 0 -590 100 0 100 0 0 658 0 657 -673 673 -672 672 -1108 0 -1107 0 0
-2270z m2747 1468 c255 -255 463 -466 463 -470 0 -5 -210 -7 -467 -6 l-468 3
-3 468 c-1 257 1 467 5 467 4 0 216 -208 470 -462z"/>
<path d="M990 2700 l0 -70 130 0 130 0 0 -395 0 -395 95 0 95 0 0 395 0 395
130 0 130 0 0 70 0 70 -355 0 -355 0 0 -70z"/>
<path d="M1743 2763 c2 -5 64 -108 137 -230 l133 -223 -134 -222 c-74 -122
-138 -228 -142 -235 -6 -10 15 -13 102 -13 l109 0 88 165 c75 140 91 163 101
149 6 -9 47 -83 90 -165 l78 -149 113 0 c106 0 112 1 103 18 -6 11 -71 116
-145 235 l-136 216 131 218 c72 120 134 224 136 231 4 10 -18 12 -102 10
l-107 -3 -82 -153 c-45 -85 -86 -154 -91 -154 -5 0 -45 70 -89 156 l-81 156
-108 0 c-60 0 -106 -3 -104 -7z"/>
<path d="M2560 2700 l0 -70 130 0 130 0 0 -395 0 -395 95 0 95 0 0 395 0 395
130 0 130 0 0 70 0 70 -355 0 -355 0 0 -70z"/>
<path d="M3537 1943 c-4 -3 -7 -204 -7 -445 l0 -438 -241 0 c-146 0 -239 -4
-237 -9 6 -18 819 -971 828 -971 5 0 106 114 223 253 118 138 303 356 411 482
107 127 196 233 196 238 0 4 -108 7 -240 7 l-240 0 -2 443 -3 442 -341 3
c-187 1 -343 -1 -347 -5z m493 -638 l0 -444 126 -3 125 -3 -197 -240 c-108
-132 -198 -242 -200 -244 -4 -5 -38 35 -233 274 l-171 210 125 3 125 3 0 438
c0 241 3 441 7 444 3 4 71 7 150 7 l143 0 0 -445z"/>
</g>
</svg>
